<?xml version="1.0" encoding="utf-8"?>
<!-- Generator: Adobe Illustrator 16.0.0, SVG Export Plug-In . SVG Version: 6.00 Build 0)  -->
<!DOCTYPE svg PUBLIC "-//W3C//DTD SVG 1.1//EN" "http://www.w3.org/Graphics/SVG/1.1/DTD/svg11.dtd">
<svg version="1.1" id="Layer_1" xmlns="http://www.w3.org/2000/svg" xmlns:xlink="http://www.w3.org/1999/xlink" x="0px" y="0px"
	 width="32px" height="32px" viewBox="0 0 32 32" enable-background="new 0 0 32 32" xml:space="preserve">
<g id="XMLID_1_">
	<g>
		<path fill="#4460A0" d="M30.7,0c0.7,0,1.3,0.6,1.2,1.3v29.4c0,0.7-0.601,1.3-1.301,1.3H22l-0.1-12h4l1-5h-5v-3.3
			c0-1.4,0.5-2.4,2.5-2.4H27V5c-0.4,0-1.9-0.2-3.7-0.2C19.6,4.8,17,6.9,17,11v4h-4v5h4v12H1.3C0.6,32,0,31.4,0,30.6V1.3
			C0,0.6,0.6,0,1.3,0H30.7z"/>
	</g>
	<g>
	</g>
</g>
<image overflow="visible" width="800" height="600" xlink:href="social-color-pallate.gif"  transform="matrix(1 0 0 1 -863 -422)">
</image>
</svg>
